<svg xmlns="http://www.w3.org/2000/svg" viewBox="0 0 67.82 25.05"><defs><style>.cls-1{fill:#f05f40;}</style></defs><title>logo</title><g id="Layer_2" data-name="Layer 2"><g id="Forms"><path class="cls-1" d="M24.58,17.76c0,8-4.81,12.77-11.9,12.77S1.25,25.09,1.25,18.17c0-7.26,4.67-12.69,11.81-12.69C20.51,5.48,24.58,11.05,24.58,17.76Zm-17.53.3c0,4.76,2.24,8.11,5.9,8.11s5.83-3.51,5.83-8.22c0-4.38-2.07-8.11-5.84-8.11S7.05,13.34,7.05,18.06Z" transform="translate(-1.25 -5.48)"/><path class="cls-1" d="M32.46,30.13V20.19L24.79,5.87h6.29l2.46,5.84c.75,1.74,1.28,3,1.88,4.65h.07c.54-1.52,1.12-2.94,1.83-4.66l2.44-5.83H46L37.94,20V30.13Z" transform="translate(-1.25 -5.48)"/><path class="cls-1" d="M69.07,17.76c0,8-4.8,12.77-11.9,12.77S45.75,25.09,45.75,18.17c0-7.26,4.66-12.69,11.81-12.69C65,5.48,69.07,11.05,69.07,17.76Zm-17.53.3c0,4.76,2.25,8.11,5.91,8.11s5.82-3.51,5.82-8.22c0-4.38-2.06-8.11-5.84-8.11S51.54,13.34,51.54,18.06Z" transform="translate(-1.25 -5.48)"/></g></g></svg>