<svg xmlns="http://www.w3.org/2000/svg" viewBox="0 0 79 35"><defs><style>.cls-1{fill:#f05f40;}.cls-2{fill:#fff;}</style></defs><title>logo-box</title><g id="Layer_2" data-name="Layer 2"><g id="Forms"><rect class="cls-1" width="79" height="35"/><path class="cls-2" d="M29.5,17.76c0,8-4.8,12.77-11.9,12.77S6.18,25.09,6.18,18.17C6.18,10.91,10.84,5.48,18,5.48,25.43,5.48,29.5,11.05,29.5,17.76ZM12,18.06c0,4.76,2.24,8.11,5.9,8.11S23.7,22.66,23.7,18c0-4.38-2.06-8.11-5.84-8.11S12,13.34,12,18.06Z" transform="translate(0 -0.62)"/><path class="cls-2" d="M37.38,30.13V20.19L29.72,5.87H36l2.47,5.84c.75,1.74,1.28,3,1.87,4.65h.08c.54-1.52,1.12-2.94,1.83-4.66l2.44-5.83h6.18L42.87,20V30.13Z" transform="translate(0 -0.62)"/><path class="cls-2" d="M74,17.76c0,8-4.81,12.77-11.9,12.77S50.67,25.09,50.67,18.17c0-7.26,4.67-12.69,11.81-12.69C69.93,5.48,74,11.05,74,17.76Zm-17.53.3c0,4.76,2.24,8.11,5.9,8.11S68.2,22.66,68.2,18c0-4.38-2.07-8.11-5.84-8.11S56.47,13.34,56.47,18.06Z" transform="translate(0 -0.62)"/></g></g></svg>